PathFileType	4	(X/Y/Z)	subject01_walk1.trc
DataRate	CameraRate	NumFrames	NumMarkers	Units	OrigDataRate	OrigDataStartFrame	OrigNumFrames
60.00	60.00	       8	41	mm	60.00	451	       900
Frame#	Time	R.ASIS			L.ASIS			V.Sacral			R.Thigh.Upper			R.Thigh.Front			R.Thigh.Rear			L.Thigh.Upper			L.Thigh.Front			L.Thigh.Rear			R.Shank.Upper			R.Shank.Front			R.Shank.Rear			L.Shank.Upper			L.Shank.Front			L.Shank.Rear			R.Heel			R.Midfoot.Sup			R.Midfoot.Lat			R.Toe.Tip			L.Heel			L.Midfoot.Sup			L.Midfoot.Lat			L.Toe.Tip			Sternum			R.Acromium			L.Acromium			R.Bicep			L.Bicep			R.Elbow			L.Elbow			R.Wrist.Med			R.Wrist.Lat			L.Wrist.Med			L.Wrist.Lat			R.Toe.Lat			R.Toe.Med			L.Toe.Lat			L.Toe.Med			R.Temple			L.Temple			Top.Head			
		X1	Y1	Z1	X2	Y2	Z2	X3	Y3	Z3	X4	Y4	Z4	X5	Y5	Z5	X6	Y6	Z6	X7	Y7	Z7	X8	Y8	Z8	X9	Y9	Z9	X10	Y10	Z10	X11	Y11	Z11	X12	Y12	Z12	X13	Y13	Z13	X14	Y14	Z14	X15	Y15	Z15	X16	Y16	Z16	X17	Y17	Z17	X18	Y18	Z18	X19	Y19	Z19	X20	Y20	Z20	X21	Y21	Z21	X22	Y22	Z22	X23	Y23	Z23	X24	Y24	Z24	X25	Y25	Z25	X26	Y26	Z26	X27	Y27	Z27	X28	Y28	Z28	X29	Y29	Z29	X30	Y30	Z30	X31	Y31	Z31	X32	Y32	Z32	X33	Y33	Z33	X34	Y34	Z34	X35	Y35	Z35	X36	Y36	Z36	X37	Y37	Z37	X38	Y38	Z38	X39	Y39	Z39	X40	Y40	Z40	X41	Y41	Z41	

451	7.500000	623.992430	1051.368160	156.745770	649.922240	1054.244630	-103.423490	438.504610	1046.536380	14.655360	550.072020	731.543820	209.605770	619.195010	657.025940	132.703200	529.393070	611.827580	207.277860	667.987000	752.487610	-158.565030	762.592530	741.446110	-90.505130	702.528380	649.928830	-144.004360	408.542510	479.547490	198.552120	447.091090	399.210390	151.154250	362.713870	407.267970	203.148670	739.593020	442.509370	-140.655270	785.745610	397.805450	-80.769740	722.646300	398.097200	-148.726440	101.354420	230.592350	111.794010	209.793110	134.645100	85.115890	183.382260	124.076950	187.759670	282.653320	36.789340	124.151970	675.960940	73.823620	-59.345630	840.504760	78.579570	-27.308720	830.122800	71.546120	-124.187130	955.149050	61.775670	-51.801510	655.601440	1363.663090	-0.505510	555.345280	1452.888920	207.334490	577.566350	1461.783690	-210.742810	576.364620	1253.322630	260.971410	584.147220	1222.730830	-238.663970	542.436340	1150.011470	297.395600	528.455990	1130.328130	-272.082640	725.293270	952.350830	272.227870	695.155270	932.860530	328.446870	631.028990	900.130490	-227.269700	582.343440	889.879090	-284.400050	224.056720	46.961190	205.452910	245.585460	47.688320	93.184910	892.968080	48.443130	-130.449570	905.166500	57.949140	-28.405760	701.179080	1614.911010	77.050830	706.118040	1618.066160	-63.362860	654.124210	1783.622920	12.015590	
452	7.517000	624.473690	1053.930540	152.984570	651.190250	1056.454960	-106.131790	439.478330	1047.992190	12.036310	560.755430	731.319950	208.698180	634.700380	659.335630	134.320420	547.327880	609.837770	207.525700	665.094240	753.884280	-161.303800	761.531070	741.603030	-94.350000	695.272460	650.460940	-145.823900	430.968810	481.059020	200.622450	464.767270	398.633910	152.861220	380.207030	411.009030	203.554570	730.538760	441.515690	-142.464520	774.802490	395.659730	-81.912800	711.565550	397.722470	-150.582460	115.754470	253.784710	109.833630	213.461530	145.946330	84.979870	183.455830	138.819760	186.942380	271.761050	34.142960	125.663020	657.629580	73.783740	-60.114170	822.456970	77.316950	-28.135080	811.754640	70.672980	-124.987950	936.967040	58.774170	-52.916130	655.883180	1365.165530	-3.027770	555.559270	1455.984130	203.592380	578.999630	1463.561280	-214.264130	574.686220	1256.361940	257.725010	588.340210	1224.726070	-241.462550	539.210750	1153.003420	293.344510	533.978700	1131.059200	-274.834110	716.709840	949.512760	274.215360	685.393740	931.760680	328.960720	639.120540	902.300780	-229.301040	591.371340	891.520080	-287.965330	213.610500	55.628800	205.026090	238.323560	55.063450	94.040570	874.852660	46.637850	-131.058700	886.910220	56.019270	-29.110050	701.121520	1617.674800	73.500930	705.688480	1620.965090	-66.697590	652.094180	1786.124390	8.801260	
453	7.533000	624.060730	1054.900150	150.722140	651.297970	1058.886350	-108.513470	439.802190	1049.786990	9.383650	571.923030	731.831420	207.356110	649.673650	662.676510	133.823820	563.679320	609.920900	206.700990	661.211120	755.293640	-163.948500	757.112790	741.007140	-96.941160	687.963200	651.439090	-147.453550	451.960330	483.722020	201.175430	483.864840	400.191890	153.118480	399.068300	415.419430	203.716450	717.990780	440.750240	-144.132600	761.339110	394.151370	-83.976840	698.420100	397.254520	-151.869780	133.946290	275.138460	107.229970	221.232350	157.380870	84.588090	188.411210	153.973740	185.951740	266.130340	32.948800	127.518010	638.929020	73.706050	-60.799990	804.292420	76.543770	-28.583940	793.230470	70.194050	-125.500950	918.562070	56.672590	-53.867870	656.548890	1368.157100	-5.690230	555.440250	1458.699580	201.030960	580.378910	1465.708980	-217.321640	573.525150	1259.255370	254.664060	594.450130	1226.507450	-244.291020	535.739010	1155.851810	289.789700	541.375980	1131.866820	-277.062350	709.323430	948.408690	275.897740	675.646300	929.804570	330.180390	646.221800	903.810670	-230.455990	599.939270	893.134340	-289.793880	207.531220	66.211810	203.280810	236.780940	64.016590	95.129640	856.300290	45.478750	-131.550830	868.509770	54.802430	-29.570940	700.343080	1620.552370	70.554020	704.937680	1624.475100	-70.115680	650.292110	1788.811040	5.886540	
454	7.550000	623.619200	1058.054320	147.965270	651.880550	1061.595700	-111.892220	439.590480	1051.929810	6.860970	585.019170	733.658020	205.220630	665.105470	667.844970	133.228680	580.300230	611.447880	206.717120	656.555240	756.778560	-166.489560	748.032530	739.549870	-97.734910	679.488100	651.198670	-149.274720	473.762080	488.265530	199.191270	503.769710	403.758030	152.507140	419.338320	420.595340	203.002810	701.839170	440.971830	-144.189440	747.386350	393.497770	-85.204700	683.961300	396.789980	-152.894900	153.671980	292.890440	103.963910	232.944200	168.252670	84.021700	198.234940	168.390180	184.834180	268.020200	34.671680	129.695510	619.973690	73.730350	-61.412110	786.053280	76.148120	-28.717520	774.569030	69.884060	-125.811650	899.984920	55.228760	-54.597600	656.057070	1370.567750	-8.467750	553.544620	1460.946660	198.968800	582.095090	1468.167720	-219.663180	570.101810	1261.181760	252.310880	599.378850	1228.603270	-245.586410	532.047120	1158.604000	286.786320	548.297610	1134.168580	-282.164250	700.466130	946.350400	277.897830	666.485050	929.149110	330.944340	654.183350	906.094120	-231.171160	610.191040	894.816960	-290.664090	208.182190	78.255030	201.351150	242.467970	73.828320	96.392040	837.566470	44.806880	-131.935500	850.041080	54.092520	-29.878210	698.899600	1623.861450	67.565190	704.894530	1627.809200	-72.803300	648.411380	1791.250370	3.242840	
455	7.567000	623.387450	1061.702390	145.486340	650.294070	1063.147950	-113.926570	438.983920	1054.393310	4.652670	596.893920	736.120360	203.647980	677.448120	673.379270	132.210600	596.952820	614.467290	205.390150	650.918820	758.294980	-168.684420	741.048280	738.309810	-99.328500	670.581600	651.981200	-151.488980	495.483000	493.609590	198.424510	523.648190	407.628780	151.846210	439.559600	426.688780	202.546630	687.318420	440.051940	-145.644810	732.014830	392.171390	-86.536000	668.844480	396.416930	-153.904480	173.043290	305.884670	100.161810	248.331380	177.884770	83.340150	212.557540	180.981520	183.646960	278.748630	39.805360	132.146470	600.903320	73.894490	-61.907920	767.709720	75.995140	-28.654310	755.770570	69.603310	-126.040010	881.276980	54.199480	-55.098620	655.488340	1372.726810	-9.380510	552.811830	1463.586910	196.928820	582.273130	1471.129390	-221.279460	569.185850	1264.024900	249.458220	604.261540	1231.617800	-246.758730	528.099850	1161.284790	284.196010	555.479430	1135.648070	-282.607300	691.914310	944.382020	279.846040	655.735660	928.475890	331.869690	663.221620	909.738340	-232.175830	620.146060	897.769350	-292.721250	221.523070	90.603280	201.888730	255.732010	83.518860	97.793180	818.843380	44.486010	-132.218750	831.517760	53.664340	-30.152560	699.043520	1627.098510	65.308330	704.235840	1631.305050	-74.538410	646.706850	1794.789430	0.872590	
456	7.583000	624.276920	1066.608640	143.867690	649.008790	1065.214840	-116.367200	438.101350	1057.089600	2.897640	606.188230	740.165770	202.220150	690.236450	680.822630	129.272430	612.846980	618.883730	204.264210	643.761840	759.745850	-170.039340	733.408390	737.718200	-100.999510	660.884160	652.845030	-154.276400	515.847900	500.919890	194.756350	542.612980	414.300990	151.624630	458.161590	435.222870	200.298710	673.271970	439.348140	-147.327000	717.938960	391.588380	-88.249860	653.448550	396.191530	-154.948930	191.542050	313.867610	96.117680	267.053890	185.686600	82.584080	230.764100	190.835950	182.439740	297.802280	47.153830	134.637820	581.900390	74.118300	-62.186980	749.229430	75.924130	-28.498380	736.884220	69.327860	-126.271330	862.479370	53.394260	-55.407730	653.833070	1375.703000	-11.353540	550.088750	1465.926510	194.852450	583.894410	1473.786010	-222.602190	565.387080	1266.235230	247.922680	609.503110	1234.492920	-247.525960	523.849730	1163.882570	281.812680	563.077150	1138.046630	-285.621490	682.155520	943.515260	280.762850	646.040220	928.501890	332.957460	671.582090	912.682740	-232.485520	631.043580	901.228580	-294.606990	244.265050	103.161160	203.582210	275.609890	91.996680	99.175410	800.111020	44.336380	-132.439770	812.841740	53.296270	-30.488360	698.295840	1630.608890	63.799160	703.209170	1634.788940	-76.121980	644.668400	1797.609500	-0.302840	
457	7.600000	623.948300	1070.565800	140.704060	647.449580	1066.672850	-119.507310	437.028500	1059.884640	1.638850	618.479610	744.657040	200.825120	702.160100	688.694890	126.269780	627.878300	623.290160	203.032170	634.637330	761.054080	-170.164920	724.896300	736.777280	-102.439960	650.634340	652.935300	-155.723980	534.169250	508.463620	191.406630	561.768980	420.615390	150.661680	476.663510	443.174190	196.763950	658.956360	439.269680	-149.382770	702.022340	391.156130	-90.235340	637.872130	396.138000	-155.912700	209.826030	317.226620	92.211230	288.723750	191.210300	81.788360	252.086200	197.301350	181.238570	323.226750	54.530250	136.793400	563.086120	74.318760	-62.151340	730.587460	75.765050	-28.305250	717.977480	69.104750	-126.510010	843.618290	52.719310	-55.600830	651.707210	1377.925660	-11.874450	549.187070	1468.458740	193.343430	583.750670	1477.424680	-224.311130	561.255620	1268.778690	246.655240	614.426640	1237.891360	-248.482380	519.259030	1166.395020	279.497890	570.748470	1140.682980	-287.573000	673.394960	943.294620	282.189420	637.370420	929.013370	333.254880	680.260680	916.496220	-231.842150	641.580930	904.644040	-294.623810	269.065610	110.600300	204.850010	300.419070	98.323880	100.281620	781.258670	44.205740	-132.638320	793.892640	52.849410	-30.870410	697.118770	1633.623900	62.231820	703.061520	1637.527470	-77.529240	642.783750	1800.236450	-1.924020	
458	7.617000	623.029110	1074.563720	137.778810	644.954410	1068.952390	-122.106030	435.795140	1062.625610	0.821450	629.217590	750.372560	199.567460	711.978210	695.753600	124.210660	641.930300	628.871640	201.520130	623.723570	762.167240	-169.183620	716.212830	736.029050	-102.970310	639.988220	653.628780	-156.350480	552.602290	513.291020	188.649290	579.721250	425.220830	148.556670	494.901950	447.626430	194.680280	642.220150	439.099240	-149.901840	685.765080	390.777590	-91.324280	621.991090	396.224490	-156.636610	228.774370	316.479250	88.855870	312.933380	194.180620	80.991870	275.826970	200.051960	180.088040	352.928100	60.117080	138.296170	544.413570	74.477130	-61.831120	711.781680	75.453410	-28.142700	699.081120	68.965450	-126.688920	824.713200	52.145990	-55.769400	650.097960	1380.769530	-13.251900	546.078490	1470.728880	191.404790	585.073790	1480.816770	-225.268310	557.631160	1271.185300	245.142150	619.367250	1241.175900	-248.531970	514.282960	1168.816650	277.207400	577.330870	1143.482060	-287.831730	664.087340	943.543330	284.161100	622.743470	930.029480	334.403020	688.353270	920.354130	-231.565430	649.100650	909.345210	-294.562410	296.129550	113.008650	204.735980	328.626250	102.013760	100.916360	762.264280	44.052370	-132.828230	774.694210	52.319310	-31.179810	695.790890	1635.967160	61.776710	701.237430	1640.378780	-78.456870	641.800050	1802.762700	-2.759570	
